<svg xmlns="http://www.w3.org/2000/svg" version="1.1" xmlns:xlink="http://www.w3.org/1999/xlink" xmlns:svgjs="http://svgjs.dev/svgjs" width="1440" height="560" preserveAspectRatio="none" viewBox="0 0 1440 560"><g mask="url(&quot;#SvgjsMask1000&quot;)" fill="none"><rect width="1440" height="560" x="0" y="0" fill="#0e2a47"></rect><path d="M46.94 -41.6L111.89 -4.1L111.89 70.9L46.94 108.4L-18.01 70.9L-18.01 -4.1zM111.89 295.9L176.85 333.4L176.85 408.4L111.89 445.9L46.94 408.4L46.94 333.4zM111.89 520.9L176.85 558.4L176.85 633.4L111.89 670.9L46.94 633.4L46.94 558.4zM176.85 -41.6L241.8 -4.1L241.8 70.9L176.85 108.4L111.89 70.9L111.89 -4.1zM241.8 70.9L306.75 108.4L306.75 183.4L241.8 220.9L176.85 183.4L176.85 108.4zM176.85 183.4L241.8 220.9L241.8 295.9L176.85 333.4L111.89 295.9L111.89 220.9zM241.8 520.9L306.75 558.4L306.75 633.4L241.8 670.9L176.85 633.4L176.85 558.4zM306.75 183.4L371.71 220.9L371.71 295.9L306.75 333.4L241.8 295.9L241.8 220.9zM371.71 295.9L436.66 333.4L436.66 408.4L371.71 445.9L306.75 408.4L306.75 333.4zM631.52 70.9L696.48 108.4L696.48 183.4L631.52 220.9L566.57 183.4L566.57 108.4zM631.52 295.9L696.48 333.4L696.48 408.4L631.52 445.9L566.57 408.4L566.57 333.4zM761.43 70.9L826.38 108.4L826.38 183.4L761.43 220.9L696.48 183.4L696.48 108.4zM696.48 183.4L761.43 220.9L761.43 295.9L696.48 333.4L631.52 295.9L631.52 220.9zM761.43 295.9L826.38 333.4L826.38 408.4L761.43 445.9L696.48 408.4L696.48 333.4zM696.48 408.4L761.43 445.9L761.43 520.9L696.48 558.4L631.52 520.9L631.52 445.9zM826.38 -41.6L891.34 -4.1L891.34 70.9L826.38 108.4L761.43 70.9L761.43 -4.1zM891.34 70.9L956.29 108.4L956.29 183.4L891.34 220.9L826.38 183.4L826.38 108.4zM891.34 295.9L956.29 333.4L956.29 408.4L891.34 445.9L826.38 408.4L826.38 333.4zM826.38 408.4L891.34 445.9L891.34 520.9L826.38 558.4L761.43 520.9L761.43 445.9zM1021.25 70.9L1086.2 108.4L1086.2 183.4L1021.25 220.9L956.29 183.4L956.29 108.4zM956.29 183.4L1021.25 220.9L1021.25 295.9L956.29 333.4L891.34 295.9L891.34 220.9zM1151.15 70.9L1216.11 108.4L1216.11 183.4L1151.15 220.9L1086.2 183.4L1086.2 108.4zM1281.06 70.9L1346.01 108.4L1346.01 183.4L1281.06 220.9L1216.11 183.4L1216.11 108.4zM1281.06 295.9L1346.01 333.4L1346.01 408.4L1281.06 445.9L1216.11 408.4L1216.11 333.4zM1216.11 408.4L1281.06 445.9L1281.06 520.9L1216.11 558.4L1151.15 520.9L1151.15 445.9zM1346.02 408.4L1410.97 445.9L1410.97 520.9L1346.02 558.4L1281.06 520.9L1281.06 445.9zM1410.97 520.9L1475.92 558.4L1475.92 633.4L1410.97 670.9L1346.02 633.4L1346.02 558.4zM1475.92 183.4L1540.88 220.9L1540.88 295.9L1475.92 333.4L1410.97 295.9L1410.97 220.9zM1540.88 520.9L1605.83 558.4L1605.83 633.4L1540.88 670.9L1475.92 633.4L1475.92 558.4z" stroke="#03305d" stroke-width="2"></path><path d="M39.44 -41.6 a7.5 7.5 0 1 0 15 0 a7.5 7.5 0 1 0 -15 0zM104.39 -4.1 a7.5 7.5 0 1 0 15 0 a7.5 7.5 0 1 0 -15 0zM104.39 70.9 a7.5 7.5 0 1 0 15 0 a7.5 7.5 0 1 0 -15 0zM39.44 108.4 a7.5 7.5 0 1 0 15 0 a7.5 7.5 0 1 0 -15 0zM-25.51 70.9 a7.5 7.5 0 1 0 15 0 a7.5 7.5 0 1 0 -15 0zM-25.51 -4.1 a7.5 7.5 0 1 0 15 0 a7.5 7.5 0 1 0 -15 0zM104.39 295.9 a7.5 7.5 0 1 0 15 0 a7.5 7.5 0 1 0 -15 0zM169.35 333.4 a7.5 7.5 0 1 0 15 0 a7.5 7.5 0 1 0 -15 0zM169.35 408.4 a7.5 7.5 0 1 0 15 0 a7.5 7.5 0 1 0 -15 0zM104.39 445.9 a7.5 7.5 0 1 0 15 0 a7.5 7.5 0 1 0 -15 0zM39.44 408.4 a7.5 7.5 0 1 0 15 0 a7.5 7.5 0 1 0 -15 0zM39.44 333.4 a7.5 7.5 0 1 0 15 0 a7.5 7.5 0 1 0 -15 0zM104.39 520.9 a7.5 7.5 0 1 0 15 0 a7.5 7.5 0 1 0 -15 0zM169.35 558.4 a7.5 7.5 0 1 0 15 0 a7.5 7.5 0 1 0 -15 0zM169.35 633.4 a7.5 7.5 0 1 0 15 0 a7.5 7.5 0 1 0 -15 0zM104.39 670.9 a7.5 7.5 0 1 0 15 0 a7.5 7.5 0 1 0 -15 0zM39.44 633.4 a7.5 7.5 0 1 0 15 0 a7.5 7.5 0 1 0 -15 0zM39.44 558.4 a7.5 7.5 0 1 0 15 0 a7.5 7.5 0 1 0 -15 0zM169.35 -41.6 a7.5 7.5 0 1 0 15 0 a7.5 7.5 0 1 0 -15 0zM234.3 -4.1 a7.5 7.5 0 1 0 15 0 a7.5 7.5 0 1 0 -15 0zM234.3 70.9 a7.5 7.5 0 1 0 15 0 a7.5 7.5 0 1 0 -15 0zM169.35 108.4 a7.5 7.5 0 1 0 15 0 a7.5 7.5 0 1 0 -15 0zM299.25 108.4 a7.5 7.5 0 1 0 15 0 a7.5 7.5 0 1 0 -15 0zM299.25 183.4 a7.5 7.5 0 1 0 15 0 a7.5 7.5 0 1 0 -15 0zM234.3 220.9 a7.5 7.5 0 1 0 15 0 a7.5 7.5 0 1 0 -15 0zM169.35 183.4 a7.5 7.5 0 1 0 15 0 a7.5 7.5 0 1 0 -15 0zM234.3 295.9 a7.5 7.5 0 1 0 15 0 a7.5 7.5 0 1 0 -15 0zM104.39 220.9 a7.5 7.5 0 1 0 15 0 a7.5 7.5 0 1 0 -15 0zM234.3 520.9 a7.5 7.5 0 1 0 15 0 a7.5 7.5 0 1 0 -15 0zM299.25 558.4 a7.5 7.5 0 1 0 15 0 a7.5 7.5 0 1 0 -15 0zM299.25 633.4 a7.5 7.5 0 1 0 15 0 a7.5 7.5 0 1 0 -15 0zM234.3 670.9 a7.5 7.5 0 1 0 15 0 a7.5 7.5 0 1 0 -15 0zM364.21 220.9 a7.5 7.5 0 1 0 15 0 a7.5 7.5 0 1 0 -15 0zM364.21 295.9 a7.5 7.5 0 1 0 15 0 a7.5 7.5 0 1 0 -15 0zM299.25 333.4 a7.5 7.5 0 1 0 15 0 a7.5 7.5 0 1 0 -15 0zM429.16 333.4 a7.5 7.5 0 1 0 15 0 a7.5 7.5 0 1 0 -15 0zM429.16 408.4 a7.5 7.5 0 1 0 15 0 a7.5 7.5 0 1 0 -15 0zM364.21 445.9 a7.5 7.5 0 1 0 15 0 a7.5 7.5 0 1 0 -15 0zM299.25 408.4 a7.5 7.5 0 1 0 15 0 a7.5 7.5 0 1 0 -15 0zM624.02 70.9 a7.5 7.5 0 1 0 15 0 a7.5 7.5 0 1 0 -15 0zM688.98 108.4 a7.5 7.5 0 1 0 15 0 a7.5 7.5 0 1 0 -15 0zM688.98 183.4 a7.5 7.5 0 1 0 15 0 a7.5 7.5 0 1 0 -15 0zM624.02 220.9 a7.5 7.5 0 1 0 15 0 a7.5 7.5 0 1 0 -15 0zM559.07 183.4 a7.5 7.5 0 1 0 15 0 a7.5 7.5 0 1 0 -15 0zM559.07 108.4 a7.5 7.5 0 1 0 15 0 a7.5 7.5 0 1 0 -15 0zM624.02 295.9 a7.5 7.5 0 1 0 15 0 a7.5 7.5 0 1 0 -15 0zM688.98 333.4 a7.5 7.5 0 1 0 15 0 a7.5 7.5 0 1 0 -15 0zM688.98 408.4 a7.5 7.5 0 1 0 15 0 a7.5 7.5 0 1 0 -15 0zM624.02 445.9 a7.5 7.5 0 1 0 15 0 a7.5 7.5 0 1 0 -15 0zM559.07 408.4 a7.5 7.5 0 1 0 15 0 a7.5 7.5 0 1 0 -15 0zM559.07 333.4 a7.5 7.5 0 1 0 15 0 a7.5 7.5 0 1 0 -15 0zM753.93 70.9 a7.5 7.5 0 1 0 15 0 a7.5 7.5 0 1 0 -15 0zM818.88 108.4 a7.5 7.5 0 1 0 15 0 a7.5 7.5 0 1 0 -15 0zM818.88 183.4 a7.5 7.5 0 1 0 15 0 a7.5 7.5 0 1 0 -15 0zM753.93 220.9 a7.5 7.5 0 1 0 15 0 a7.5 7.5 0 1 0 -15 0zM753.93 295.9 a7.5 7.5 0 1 0 15 0 a7.5 7.5 0 1 0 -15 0zM818.88 333.4 a7.5 7.5 0 1 0 15 0 a7.5 7.5 0 1 0 -15 0zM818.88 408.4 a7.5 7.5 0 1 0 15 0 a7.5 7.5 0 1 0 -15 0zM753.93 445.9 a7.5 7.5 0 1 0 15 0 a7.5 7.5 0 1 0 -15 0zM753.93 520.9 a7.5 7.5 0 1 0 15 0 a7.5 7.5 0 1 0 -15 0zM688.98 558.4 a7.5 7.5 0 1 0 15 0 a7.5 7.5 0 1 0 -15 0zM624.02 520.9 a7.5 7.5 0 1 0 15 0 a7.5 7.5 0 1 0 -15 0zM818.88 -41.6 a7.5 7.5 0 1 0 15 0 a7.5 7.5 0 1 0 -15 0zM883.84 -4.1 a7.5 7.5 0 1 0 15 0 a7.5 7.5 0 1 0 -15 0zM883.84 70.9 a7.5 7.5 0 1 0 15 0 a7.5 7.5 0 1 0 -15 0zM753.93 -4.1 a7.5 7.5 0 1 0 15 0 a7.5 7.5 0 1 0 -15 0zM948.79 108.4 a7.5 7.5 0 1 0 15 0 a7.5 7.5 0 1 0 -15 0zM948.79 183.4 a7.5 7.5 0 1 0 15 0 a7.5 7.5 0 1 0 -15 0zM883.84 220.9 a7.5 7.5 0 1 0 15 0 a7.5 7.5 0 1 0 -15 0zM883.84 295.9 a7.5 7.5 0 1 0 15 0 a7.5 7.5 0 1 0 -15 0zM948.79 333.4 a7.5 7.5 0 1 0 15 0 a7.5 7.5 0 1 0 -15 0zM948.79 408.4 a7.5 7.5 0 1 0 15 0 a7.5 7.5 0 1 0 -15 0zM883.84 445.9 a7.5 7.5 0 1 0 15 0 a7.5 7.5 0 1 0 -15 0zM883.84 520.9 a7.5 7.5 0 1 0 15 0 a7.5 7.5 0 1 0 -15 0zM818.88 558.4 a7.5 7.5 0 1 0 15 0 a7.5 7.5 0 1 0 -15 0zM1013.75 70.9 a7.5 7.5 0 1 0 15 0 a7.5 7.5 0 1 0 -15 0zM1078.7 108.4 a7.5 7.5 0 1 0 15 0 a7.5 7.5 0 1 0 -15 0zM1078.7 183.4 a7.5 7.5 0 1 0 15 0 a7.5 7.5 0 1 0 -15 0zM1013.75 220.9 a7.5 7.5 0 1 0 15 0 a7.5 7.5 0 1 0 -15 0zM1013.75 295.9 a7.5 7.5 0 1 0 15 0 a7.5 7.5 0 1 0 -15 0zM1143.65 70.9 a7.5 7.5 0 1 0 15 0 a7.5 7.5 0 1 0 -15 0zM1208.61 108.4 a7.5 7.5 0 1 0 15 0 a7.5 7.5 0 1 0 -15 0zM1208.61 183.4 a7.5 7.5 0 1 0 15 0 a7.5 7.5 0 1 0 -15 0zM1143.65 220.9 a7.5 7.5 0 1 0 15 0 a7.5 7.5 0 1 0 -15 0zM1273.56 70.9 a7.5 7.5 0 1 0 15 0 a7.5 7.5 0 1 0 -15 0zM1338.51 108.4 a7.5 7.5 0 1 0 15 0 a7.5 7.5 0 1 0 -15 0zM1338.51 183.4 a7.5 7.5 0 1 0 15 0 a7.5 7.5 0 1 0 -15 0zM1273.56 220.9 a7.5 7.5 0 1 0 15 0 a7.5 7.5 0 1 0 -15 0zM1273.56 295.9 a7.5 7.5 0 1 0 15 0 a7.5 7.5 0 1 0 -15 0zM1338.51 333.4 a7.5 7.5 0 1 0 15 0 a7.5 7.5 0 1 0 -15 0zM1338.51 408.4 a7.5 7.5 0 1 0 15 0 a7.5 7.5 0 1 0 -15 0zM1273.56 445.9 a7.5 7.5 0 1 0 15 0 a7.5 7.5 0 1 0 -15 0zM1208.61 408.4 a7.5 7.5 0 1 0 15 0 a7.5 7.5 0 1 0 -15 0zM1208.61 333.4 a7.5 7.5 0 1 0 15 0 a7.5 7.5 0 1 0 -15 0zM1273.56 520.9 a7.5 7.5 0 1 0 15 0 a7.5 7.5 0 1 0 -15 0zM1208.61 558.4 a7.5 7.5 0 1 0 15 0 a7.5 7.5 0 1 0 -15 0zM1143.65 520.9 a7.5 7.5 0 1 0 15 0 a7.5 7.5 0 1 0 -15 0zM1143.65 445.9 a7.5 7.5 0 1 0 15 0 a7.5 7.5 0 1 0 -15 0zM1338.52 408.4 a7.5 7.5 0 1 0 15 0 a7.5 7.5 0 1 0 -15 0zM1403.47 445.9 a7.5 7.5 0 1 0 15 0 a7.5 7.5 0 1 0 -15 0zM1403.47 520.9 a7.5 7.5 0 1 0 15 0 a7.5 7.5 0 1 0 -15 0zM1338.52 558.4 a7.5 7.5 0 1 0 15 0 a7.5 7.5 0 1 0 -15 0zM1468.42 558.4 a7.5 7.5 0 1 0 15 0 a7.5 7.5 0 1 0 -15 0zM1468.42 633.4 a7.5 7.5 0 1 0 15 0 a7.5 7.5 0 1 0 -15 0zM1403.47 670.9 a7.5 7.5 0 1 0 15 0 a7.5 7.5 0 1 0 -15 0zM1338.52 633.4 a7.5 7.5 0 1 0 15 0 a7.5 7.5 0 1 0 -15 0zM1468.42 183.4 a7.5 7.5 0 1 0 15 0 a7.5 7.5 0 1 0 -15 0zM1533.38 220.9 a7.5 7.5 0 1 0 15 0 a7.5 7.5 0 1 0 -15 0zM1533.38 295.9 a7.5 7.5 0 1 0 15 0 a7.5 7.5 0 1 0 -15 0zM1468.42 333.4 a7.5 7.5 0 1 0 15 0 a7.5 7.5 0 1 0 -15 0zM1403.47 295.9 a7.5 7.5 0 1 0 15 0 a7.5 7.5 0 1 0 -15 0zM1403.47 220.9 a7.5 7.5 0 1 0 15 0 a7.5 7.5 0 1 0 -15 0zM1533.38 520.9 a7.5 7.5 0 1 0 15 0 a7.5 7.5 0 1 0 -15 0zM1598.33 558.4 a7.5 7.5 0 1 0 15 0 a7.5 7.5 0 1 0 -15 0zM1598.33 633.4 a7.5 7.5 0 1 0 15 0 a7.5 7.5 0 1 0 -15 0zM1533.38 670.9 a7.5 7.5 0 1 0 15 0 a7.5 7.5 0 1 0 -15 0z" fill="#03305d"></path><path d="M22.09 303.86L67.12 329.86L67.12 381.86L22.09 407.86L-22.94 381.86L-22.94 329.86zM22.09 459.86L67.12 485.86L67.12 537.86L22.09 563.86L-22.94 537.86L-22.94 485.86zM67.12 537.86L112.16 563.86L112.16 615.86L67.12 641.86L22.09 615.86L22.09 563.86zM112.16 -8.14L157.19 17.86L157.19 69.86L112.16 95.86L67.12 69.86L67.12 17.86zM157.19 69.86L202.23 95.86L202.23 147.86L157.19 173.86L112.16 147.86L112.16 95.86zM112.16 303.86L157.19 329.86L157.19 381.86L112.16 407.86L67.12 381.86L67.12 329.86zM112.16 459.86L157.19 485.86L157.19 537.86L112.16 563.86L67.12 537.86L67.12 485.86zM157.19 537.86L202.23 563.86L202.23 615.86L157.19 641.86L112.16 615.86L112.16 563.86zM202.23 147.86L247.26 173.86L247.26 225.86L202.23 251.86L157.19 225.86L157.19 173.86zM247.26 537.86L292.3 563.86L292.3 615.86L247.26 641.86L202.23 615.86L202.23 563.86zM292.3 -8.14L337.33 17.86L337.33 69.86L292.3 95.86L247.26 69.86L247.26 17.86zM382.37 -8.14L427.4 17.86L427.4 69.86L382.37 95.86L337.33 69.86L337.33 17.86zM427.4 69.86L472.44 95.86L472.44 147.86L427.4 173.86L382.37 147.86L382.37 95.86zM382.37 147.86L427.4 173.86L427.4 225.86L382.37 251.86L337.33 225.86L337.33 173.86zM427.4 225.86L472.44 251.86L472.44 303.86L427.4 329.86L382.37 303.86L382.37 251.86zM382.37 303.86L427.4 329.86L427.4 381.86L382.37 407.86L337.33 381.86L337.33 329.86zM427.4 381.86L472.44 407.86L472.44 459.86L427.4 485.86L382.37 459.86L382.37 407.86zM517.47 537.86L562.51 563.86L562.51 615.86L517.47 641.86L472.44 615.86L472.44 563.86zM562.51 -8.14L607.54 17.86L607.54 69.86L562.51 95.86L517.47 69.86L517.47 17.86zM607.54 69.86L652.57 95.86L652.57 147.86L607.54 173.86L562.51 147.86L562.51 95.86zM562.51 303.86L607.54 329.86L607.54 381.86L562.51 407.86L517.47 381.86L517.47 329.86zM607.54 381.86L652.57 407.86L652.57 459.86L607.54 485.86L562.51 459.86L562.51 407.86zM652.57 147.86L697.61 173.86L697.61 225.86L652.57 251.86L607.54 225.86L607.54 173.86zM697.61 381.86L742.64 407.86L742.64 459.86L697.61 485.86L652.57 459.86L652.57 407.86zM652.57 459.86L697.61 485.86L697.61 537.86L652.57 563.86L607.54 537.86L607.54 485.86zM787.68 69.86L832.71 95.86L832.71 147.86L787.68 173.86L742.64 147.86L742.64 95.86zM787.68 225.86L832.71 251.86L832.71 303.86L787.68 329.86L742.64 303.86L742.64 251.86zM742.64 303.86L787.68 329.86L787.68 381.86L742.64 407.86L697.61 381.86L697.61 329.86zM832.71 -8.14L877.75 17.86L877.75 69.86L832.71 95.86L787.68 69.86L787.68 17.86zM877.75 225.86L922.78 251.86L922.78 303.86L877.75 329.86L832.71 303.86L832.71 251.86zM922.78 303.86L967.82 329.86L967.82 381.86L922.78 407.86L877.75 381.86L877.75 329.86zM1012.85 147.86L1057.89 173.86L1057.89 225.86L1012.85 251.86L967.82 225.86L967.82 173.86zM1147.95 225.86L1192.99 251.86L1192.99 303.86L1147.95 329.86L1102.92 303.86L1102.92 251.86zM1102.92 459.86L1147.95 485.86L1147.95 537.86L1102.92 563.86L1057.89 537.86L1057.89 485.86zM1192.99 -8.14L1238.02 17.86L1238.02 69.86L1192.99 95.86L1147.95 69.86L1147.95 17.86zM1238.02 381.86L1283.06 407.86L1283.06 459.86L1238.02 485.86L1192.99 459.86L1192.99 407.86zM1192.99 459.86L1238.02 485.86L1238.02 537.86L1192.99 563.86L1147.95 537.86L1147.95 485.86zM1283.06 303.86L1328.09 329.86L1328.09 381.86L1283.06 407.86L1238.02 381.86L1238.02 329.86zM1418.16 225.86L1463.2 251.86L1463.2 303.86L1418.16 329.86L1373.13 303.86L1373.13 251.86zM1373.13 303.86L1418.16 329.86L1418.16 381.86L1373.13 407.86L1328.09 381.86L1328.09 329.86zM1418.16 537.86L1463.2 563.86L1463.2 615.86L1418.16 641.86L1373.13 615.86L1373.13 563.86z" stroke="rgba(6, 80, 156, 0.93)" stroke-width="2"></path></g><defs><mask id="SvgjsMask1000"><rect width="1440" height="560" fill="#ffffff"></rect></mask></defs></svg>