<svg xmlns="http://www.w3.org/2000/svg" version="1.1" xmlns:xlink="http://www.w3.org/1999/xlink" xmlns:svgjs="http://svgjs.dev/svgjs" width="1440" height="560" preserveAspectRatio="none" viewBox="0 0 1440 560"><g mask="url(&quot;#SvgjsMask1000&quot;)" fill="none"><rect width="1440" height="560" x="0" y="0" fill="#0e2a47"></rect><path d="M-73.27 354.22L-73.27 354.22" stroke="#132e65" stroke-width="1.5"></path><path d="M-73.27 354.22L66.6 381.5" stroke="#132e65" stroke-width="1.5"></path><path d="M-73.27 354.22L-43.82 511.35" stroke="#132e65" stroke-width="1.5"></path><path d="M-43.82 511.35L-43.82 511.35" stroke="#132e65" stroke-width="1.5"></path><path d="M-43.82 511.35L69.76 541.67" stroke="#132e65" stroke-width="1.5"></path><path d="M-43.82 511.35L-82.11 642.16" stroke="#132e65" stroke-width="1.5"></path><path d="M-82.11 642.16L-82.11 642.16" stroke="#132e65" stroke-width="1.5"></path><path d="M-82.11 642.16L42.65 678.29" stroke="#132e65" stroke-width="1.5"></path><path d="M-82.11 642.16L69.76 541.67" stroke="#132e65" stroke-width="1.5"></path><path d="M66.6 381.5L66.6 381.5" stroke="#132e65" stroke-width="1.5"></path><path d="M66.6 381.5L195.62 372.01" stroke="#132e65" stroke-width="1.5"></path><path d="M66.6 381.5L69.76 541.67" stroke="#132e65" stroke-width="1.5"></path><path d="M66.6 381.5L-43.82 511.35" stroke="#132e65" stroke-width="1.5"></path><path d="M66.6 381.5L227.13 522.25" stroke="#132e65" stroke-width="1.5"></path><path d="M66.6 381.5L42.65 678.29" stroke="#132e65" stroke-width="1.5"></path><path d="M69.76 541.67L69.76 541.67" stroke="#132e65" stroke-width="1.5"></path><path d="M69.76 541.67L42.65 678.29" stroke="#132e65" stroke-width="1.5"></path><path d="M69.76 541.67L227.13 522.25" stroke="#132e65" stroke-width="1.5"></path><path d="M42.65 678.29L42.65 678.29" stroke="#132e65" stroke-width="1.5"></path><path d="M42.65 678.29L-43.82 511.35" stroke="#132e65" stroke-width="1.5"></path><path d="M42.65 678.29L236.86 652.96" stroke="#132e65" stroke-width="1.5"></path><path d="M42.65 678.29L227.13 522.25" stroke="#132e65" stroke-width="1.5"></path><path d="M42.65 678.29L339.2 673.68" stroke="#132e65" stroke-width="1.5"></path><path d="M195.62 372.01L195.62 372.01" stroke="#132e65" stroke-width="1.5"></path><path d="M195.62 372.01L227.13 522.25" stroke="#132e65" stroke-width="1.5"></path><path d="M195.62 372.01L365.49 341.8" stroke="#132e65" stroke-width="1.5"></path><path d="M195.62 372.01L69.76 541.67" stroke="#132e65" stroke-width="1.5"></path><path d="M195.62 372.01L401.63 521.43" stroke="#132e65" stroke-width="1.5"></path><path d="M195.62 372.01L-73.27 354.22" stroke="#132e65" stroke-width="1.5"></path><path d="M227.13 522.25L227.13 522.25" stroke="#132e65" stroke-width="1.5"></path><path d="M227.13 522.25L236.86 652.96" stroke="#132e65" stroke-width="1.5"></path><path d="M227.13 522.25L401.63 521.43" stroke="#132e65" stroke-width="1.5"></path><path d="M236.86 652.96L236.86 652.96" stroke="#132e65" stroke-width="1.5"></path><path d="M236.86 652.96L339.2 673.68" stroke="#132e65" stroke-width="1.5"></path><path d="M365.49 341.8L365.49 341.8" stroke="#132e65" stroke-width="1.5"></path><path d="M365.49 341.8L401.63 521.43" stroke="#132e65" stroke-width="1.5"></path><path d="M401.63 521.43L401.63 521.43" stroke="#132e65" stroke-width="1.5"></path><path d="M401.63 521.43L511.61 507.29" stroke="#132e65" stroke-width="1.5"></path><path d="M401.63 521.43L339.2 673.68" stroke="#132e65" stroke-width="1.5"></path><path d="M339.2 673.68L339.2 673.68" stroke="#132e65" stroke-width="1.5"></path><path d="M339.2 673.68L525.39 684.73" stroke="#132e65" stroke-width="1.5"></path><path d="M339.2 673.68L227.13 522.25" stroke="#132e65" stroke-width="1.5"></path><path d="M339.2 673.68L511.61 507.29" stroke="#132e65" stroke-width="1.5"></path><path d="M553.28 337.71L553.28 337.71" stroke="#132e65" stroke-width="1.5"></path><path d="M553.28 337.71L642.23 346.58" stroke="#132e65" stroke-width="1.5"></path><path d="M553.28 337.71L656.12 254.99" stroke="#132e65" stroke-width="1.5"></path><path d="M553.28 337.71L511.61 507.29" stroke="#132e65" stroke-width="1.5"></path><path d="M553.28 337.71L365.49 341.8" stroke="#132e65" stroke-width="1.5"></path><path d="M553.28 337.71L648.99 511.85" stroke="#132e65" stroke-width="1.5"></path><path d="M511.61 507.29L511.61 507.29" stroke="#132e65" stroke-width="1.5"></path><path d="M511.61 507.29L648.99 511.85" stroke="#132e65" stroke-width="1.5"></path><path d="M525.39 684.73L525.39 684.73" stroke="#132e65" stroke-width="1.5"></path><path d="M525.39 684.73L693.93 637.99" stroke="#132e65" stroke-width="1.5"></path><path d="M525.39 684.73L511.61 507.29" stroke="#132e65" stroke-width="1.5"></path><path d="M525.39 684.73L401.63 521.43" stroke="#132e65" stroke-width="1.5"></path><path d="M656.12 254.99L656.12 254.99" stroke="#132e65" stroke-width="1.5"></path><path d="M656.12 254.99L642.23 346.58" stroke="#132e65" stroke-width="1.5"></path><path d="M656.12 254.99L825.17 224.92" stroke="#132e65" stroke-width="1.5"></path><path d="M642.23 346.58L642.23 346.58" stroke="#132e65" stroke-width="1.5"></path><path d="M648.99 511.85L648.99 511.85" stroke="#132e65" stroke-width="1.5"></path><path d="M648.99 511.85L693.93 637.99" stroke="#132e65" stroke-width="1.5"></path><path d="M648.99 511.85L797.55 532.73" stroke="#132e65" stroke-width="1.5"></path><path d="M693.93 637.99L693.93 637.99" stroke="#132e65" stroke-width="1.5"></path><path d="M693.93 637.99L797.55 532.73" stroke="#132e65" stroke-width="1.5"></path><path d="M693.93 637.99L853.19 650.69" stroke="#132e65" stroke-width="1.5"></path><path d="M825.17 224.92L825.17 224.92" stroke="#132e65" stroke-width="1.5"></path><path d="M825.17 224.92L1000.11 238.03" stroke="#132e65" stroke-width="1.5"></path><path d="M825.17 224.92L835.55 406.67" stroke="#132e65" stroke-width="1.5"></path><path d="M825.17 224.92L970.19 104.36" stroke="#132e65" stroke-width="1.5"></path><path d="M825.17 224.92L642.23 346.58" stroke="#132e65" stroke-width="1.5"></path><path d="M825.17 224.92L553.28 337.71" stroke="#132e65" stroke-width="1.5"></path><path d="M835.55 406.67L835.55 406.67" stroke="#132e65" stroke-width="1.5"></path><path d="M835.55 406.67L797.55 532.73" stroke="#132e65" stroke-width="1.5"></path><path d="M835.55 406.67L965.61 503.05" stroke="#132e65" stroke-width="1.5"></path><path d="M835.55 406.67L642.23 346.58" stroke="#132e65" stroke-width="1.5"></path><path d="M797.55 532.73L797.55 532.73" stroke="#132e65" stroke-width="1.5"></path><path d="M797.55 532.73L853.19 650.69" stroke="#132e65" stroke-width="1.5"></path><path d="M853.19 650.69L853.19 650.69" stroke="#132e65" stroke-width="1.5"></path><path d="M853.19 650.69L999.62 688.88" stroke="#132e65" stroke-width="1.5"></path><path d="M996.49 -44.24L996.49 -44.24" stroke="#132e65" stroke-width="1.5"></path><path d="M996.49 -44.24L970.19 104.36" stroke="#132e65" stroke-width="1.5"></path><path d="M996.49 -44.24L1126.03 62.87" stroke="#132e65" stroke-width="1.5"></path><path d="M996.49 -44.24L1000.11 238.03" stroke="#132e65" stroke-width="1.5"></path><path d="M996.49 -44.24L1134.61 209.81" stroke="#132e65" stroke-width="1.5"></path><path d="M996.49 -44.24L1300.86 -76.7" stroke="#132e65" stroke-width="1.5"></path><path d="M970.19 104.36L970.19 104.36" stroke="#132e65" stroke-width="1.5"></path><path d="M970.19 104.36L1000.11 238.03" stroke="#132e65" stroke-width="1.5"></path><path d="M970.19 104.36L1126.03 62.87" stroke="#132e65" stroke-width="1.5"></path><path d="M1000.11 238.03L1000.11 238.03" stroke="#132e65" stroke-width="1.5"></path><path d="M1000.11 238.03L1134.61 209.81" stroke="#132e65" stroke-width="1.5"></path><path d="M965.61 503.05L965.61 503.05" stroke="#132e65" stroke-width="1.5"></path><path d="M965.61 503.05L1100.34 516.15" stroke="#132e65" stroke-width="1.5"></path><path d="M965.61 503.05L797.55 532.73" stroke="#132e65" stroke-width="1.5"></path><path d="M965.61 503.05L1096.87 389.68" stroke="#132e65" stroke-width="1.5"></path><path d="M965.61 503.05L853.19 650.69" stroke="#132e65" stroke-width="1.5"></path><path d="M999.62 688.88L999.62 688.88" stroke="#132e65" stroke-width="1.5"></path><path d="M999.62 688.88L1125.59 671.47" stroke="#132e65" stroke-width="1.5"></path><path d="M999.62 688.88L965.61 503.05" stroke="#132e65" stroke-width="1.5"></path><path d="M999.62 688.88L1100.34 516.15" stroke="#132e65" stroke-width="1.5"></path><path d="M999.62 688.88L1248.93 663.67" stroke="#132e65" stroke-width="1.5"></path><path d="M1126.03 62.87L1126.03 62.87" stroke="#132e65" stroke-width="1.5"></path><path d="M1126.03 62.87L1134.61 209.81" stroke="#132e65" stroke-width="1.5"></path><path d="M1126.03 62.87L1298.62 55.07" stroke="#132e65" stroke-width="1.5"></path><path d="M1126.03 62.87L1000.11 238.03" stroke="#132e65" stroke-width="1.5"></path><path d="M1134.61 209.81L1134.61 209.81" stroke="#132e65" stroke-width="1.5"></path><path d="M1134.61 209.81L1308.49 225.03" stroke="#132e65" stroke-width="1.5"></path><path d="M1134.61 209.81L1096.87 389.68" stroke="#132e65" stroke-width="1.5"></path><path d="M1096.87 389.68L1096.87 389.68" stroke="#132e65" stroke-width="1.5"></path><path d="M1096.87 389.68L1100.34 516.15" stroke="#132e65" stroke-width="1.5"></path><path d="M1096.87 389.68L1270.91 378.76" stroke="#132e65" stroke-width="1.5"></path><path d="M1096.87 389.68L1000.11 238.03" stroke="#132e65" stroke-width="1.5"></path><path d="M1100.34 516.15L1100.34 516.15" stroke="#132e65" stroke-width="1.5"></path><path d="M1100.34 516.15L1125.59 671.47" stroke="#132e65" stroke-width="1.5"></path><path d="M1100.34 516.15L1251.67 561.24" stroke="#132e65" stroke-width="1.5"></path><path d="M1100.34 516.15L1248.93 663.67" stroke="#132e65" stroke-width="1.5"></path><path d="M1125.59 671.47L1125.59 671.47" stroke="#132e65" stroke-width="1.5"></path><path d="M1125.59 671.47L1248.93 663.67" stroke="#132e65" stroke-width="1.5"></path><path d="M1125.59 671.47L1251.67 561.24" stroke="#132e65" stroke-width="1.5"></path><path d="M1300.86 -76.7L1300.86 -76.7" stroke="#132e65" stroke-width="1.5"></path><path d="M1300.86 -76.7L1298.62 55.07" stroke="#132e65" stroke-width="1.5"></path><path d="M1300.86 -76.7L1460.65 -42.02" stroke="#132e65" stroke-width="1.5"></path><path d="M1300.86 -76.7L1443.29 85.56" stroke="#132e65" stroke-width="1.5"></path><path d="M1300.86 -76.7L1126.03 62.87" stroke="#132e65" stroke-width="1.5"></path><path d="M1298.62 55.07L1298.62 55.07" stroke="#132e65" stroke-width="1.5"></path><path d="M1308.49 225.03L1308.49 225.03" stroke="#132e65" stroke-width="1.5"></path><path d="M1308.49 225.03L1436.29 256.33" stroke="#132e65" stroke-width="1.5"></path><path d="M1308.49 225.03L1401.93 338.93" stroke="#132e65" stroke-width="1.5"></path><path d="M1308.49 225.03L1270.91 378.76" stroke="#132e65" stroke-width="1.5"></path><path d="M1308.49 225.03L1298.62 55.07" stroke="#132e65" stroke-width="1.5"></path><path d="M1270.91 378.76L1270.91 378.76" stroke="#132e65" stroke-width="1.5"></path><path d="M1270.91 378.76L1401.93 338.93" stroke="#132e65" stroke-width="1.5"></path><path d="M1270.91 378.76L1251.67 561.24" stroke="#132e65" stroke-width="1.5"></path><path d="M1251.67 561.24L1251.67 561.24" stroke="#132e65" stroke-width="1.5"></path><path d="M1251.67 561.24L1248.93 663.67" stroke="#132e65" stroke-width="1.5"></path><path d="M1251.67 561.24L1426.79 640.49" stroke="#132e65" stroke-width="1.5"></path><path d="M1248.93 663.67L1248.93 663.67" stroke="#132e65" stroke-width="1.5"></path><path d="M1460.65 -42.02L1460.65 -42.02" stroke="#132e65" stroke-width="1.5"></path><path d="M1460.65 -42.02L1561.36 -109.46" stroke="#132e65" stroke-width="1.5"></path><path d="M1460.65 -42.02L1549.22 45.21" stroke="#132e65" stroke-width="1.5"></path><path d="M1460.65 -42.02L1443.29 85.56" stroke="#132e65" stroke-width="1.5"></path><path d="M1443.29 85.56L1443.29 85.56" stroke="#132e65" stroke-width="1.5"></path><path d="M1443.29 85.56L1549.22 45.21" stroke="#132e65" stroke-width="1.5"></path><path d="M1443.29 85.56L1298.62 55.07" stroke="#132e65" stroke-width="1.5"></path><path d="M1436.29 256.33L1436.29 256.33" stroke="#132e65" stroke-width="1.5"></path><path d="M1436.29 256.33L1401.93 338.93" stroke="#132e65" stroke-width="1.5"></path><path d="M1436.29 256.33L1587.44 203.14" stroke="#132e65" stroke-width="1.5"></path><path d="M1401.93 338.93L1401.93 338.93" stroke="#132e65" stroke-width="1.5"></path><path d="M1401.93 338.93L1591 364.93" stroke="#132e65" stroke-width="1.5"></path><path d="M1401.93 338.93L1587.44 203.14" stroke="#132e65" stroke-width="1.5"></path><path d="M1401.93 338.93L1443.29 85.56" stroke="#132e65" stroke-width="1.5"></path><path d="M1426.79 640.49L1426.79 640.49" stroke="#132e65" stroke-width="1.5"></path><path d="M1426.79 640.49L1591.32 644.46" stroke="#132e65" stroke-width="1.5"></path><path d="M1426.79 640.49L1248.93 663.67" stroke="#132e65" stroke-width="1.5"></path><path d="M1426.79 640.49L1586.83 534.15" stroke="#132e65" stroke-width="1.5"></path><path d="M1561.36 -109.46L1561.36 -109.46" stroke="#132e65" stroke-width="1.5"></path><path d="M1561.36 -109.46L1549.22 45.21" stroke="#132e65" stroke-width="1.5"></path><path d="M1561.36 -109.46L1443.29 85.56" stroke="#132e65" stroke-width="1.5"></path><path d="M1549.22 45.21L1549.22 45.21" stroke="#132e65" stroke-width="1.5"></path><path d="M1587.44 203.14L1587.44 203.14" stroke="#132e65" stroke-width="1.5"></path><path d="M1587.44 203.14L1591 364.93" stroke="#132e65" stroke-width="1.5"></path><path d="M1587.44 203.14L1549.22 45.21" stroke="#132e65" stroke-width="1.5"></path><path d="M1587.44 203.14L1443.29 85.56" stroke="#132e65" stroke-width="1.5"></path><path d="M1587.44 203.14L1460.65 -42.02" stroke="#132e65" stroke-width="1.5"></path><path d="M1591 364.93L1591 364.93" stroke="#132e65" stroke-width="1.5"></path><path d="M1591 364.93L1586.83 534.15" stroke="#132e65" stroke-width="1.5"></path><path d="M1591 364.93L1436.29 256.33" stroke="#132e65" stroke-width="1.5"></path><path d="M1586.83 534.15L1586.83 534.15" stroke="#132e65" stroke-width="1.5"></path><path d="M1586.83 534.15L1591.32 644.46" stroke="#132e65" stroke-width="1.5"></path><path d="M1586.83 534.15L1401.93 338.93" stroke="#132e65" stroke-width="1.5"></path><path d="M1586.83 534.15L1436.29 256.33" stroke="#132e65" stroke-width="1.5"></path><path d="M1591.32 644.46L1591.32 644.46" stroke="#132e65" stroke-width="1.5"></path><path d="M1591.32 644.46L1591 364.93" stroke="#132e65" stroke-width="1.5"></path><path d="M1591.32 644.46L1248.93 663.67" stroke="#132e65" stroke-width="1.5"></path><path d="M1591.32 644.46L1251.67 561.24" stroke="#132e65" stroke-width="1.5"></path><circle r="5" cx="-73.27" cy="354.22" fill="#132e65"></circle><circle r="5" cx="-43.82" cy="511.35" fill="#132e65"></circle><circle r="5" cx="-82.11" cy="642.16" fill="#132e65"></circle><circle r="5" cx="66.6" cy="381.5" fill="#132e65"></circle><circle r="5" cx="69.76" cy="541.67" fill="#132e65"></circle><circle r="5" cx="42.65" cy="678.29" fill="#132e65"></circle><circle r="5" cx="195.62" cy="372.01" fill="#132e65"></circle><circle r="5" cx="227.13" cy="522.25" fill="#132e65"></circle><circle r="5" cx="236.86" cy="652.96" fill="#132e65"></circle><circle r="5" cx="365.49" cy="341.8" fill="#132e65"></circle><circle r="5" cx="401.63" cy="521.43" fill="#132e65"></circle><circle r="5" cx="339.2" cy="673.68" fill="#132e65"></circle><circle r="5" cx="553.28" cy="337.71" fill="#132e65"></circle><circle r="5" cx="511.61" cy="507.29" fill="#132e65"></circle><circle r="5" cx="525.39" cy="684.73" fill="#132e65"></circle><circle r="5" cx="656.12" cy="254.99" fill="#132e65"></circle><circle r="5" cx="642.23" cy="346.58" fill="#132e65"></circle><circle r="5" cx="648.99" cy="511.85" fill="#132e65"></circle><circle r="5" cx="693.93" cy="637.99" fill="#132e65"></circle><circle r="5" cx="825.17" cy="224.92" fill="#132e65"></circle><circle r="5" cx="835.55" cy="406.67" fill="#132e65"></circle><circle r="5" cx="797.55" cy="532.73" fill="#132e65"></circle><circle r="5" cx="853.19" cy="650.69" fill="#132e65"></circle><circle r="5" cx="996.49" cy="-44.24" fill="#132e65"></circle><circle r="5" cx="970.19" cy="104.36" fill="#132e65"></circle><circle r="5" cx="1000.11" cy="238.03" fill="#132e65"></circle><circle r="5" cx="965.61" cy="503.05" fill="#132e65"></circle><circle r="5" cx="999.62" cy="688.88" fill="#132e65"></circle><circle r="5" cx="1126.03" cy="62.87" fill="#132e65"></circle><circle r="5" cx="1134.61" cy="209.81" fill="#132e65"></circle><circle r="5" cx="1096.87" cy="389.68" fill="#132e65"></circle><circle r="5" cx="1100.34" cy="516.15" fill="#132e65"></circle><circle r="5" cx="1125.59" cy="671.47" fill="#132e65"></circle><circle r="5" cx="1300.86" cy="-76.7" fill="#132e65"></circle><circle r="5" cx="1298.62" cy="55.07" fill="#132e65"></circle><circle r="5" cx="1308.49" cy="225.03" fill="#132e65"></circle><circle r="5" cx="1270.91" cy="378.76" fill="#132e65"></circle><circle r="5" cx="1251.67" cy="561.24" fill="#132e65"></circle><circle r="5" cx="1248.93" cy="663.67" fill="#132e65"></circle><circle r="5" cx="1460.65" cy="-42.02" fill="#132e65"></circle><circle r="5" cx="1443.29" cy="85.56" fill="#132e65"></circle><circle r="5" cx="1436.29" cy="256.33" fill="#132e65"></circle><circle r="5" cx="1401.93" cy="338.93" fill="#132e65"></circle><circle r="5" cx="1426.79" cy="640.49" fill="#132e65"></circle><circle r="5" cx="1561.36" cy="-109.46" fill="#132e65"></circle><circle r="5" cx="1549.22" cy="45.21" fill="#132e65"></circle><circle r="5" cx="1587.44" cy="203.14" fill="#132e65"></circle><circle r="5" cx="1591" cy="364.93" fill="#132e65"></circle><circle r="5" cx="1586.83" cy="534.15" fill="#132e65"></circle><circle r="5" cx="1591.32" cy="644.46" fill="#132e65"></circle><path d="M192.02 549.97L192.02 549.97" stroke="hsl(228.5, 77.2%, 51.5%)" stroke-width="1.5"></path><path d="M192.02 549.97L77.79 510.46" stroke="hsl(228.5, 77.2%, 51.5%)" stroke-width="1.5"></path><path d="M192.02 549.97L355.28 537.06" stroke="hsl(228.5, 77.2%, 51.5%)" stroke-width="1.5"></path><path d="M192.02 549.97L77.71 701.5" stroke="hsl(228.5, 77.2%, 51.5%)" stroke-width="1.5"></path><path d="M549.19 679.49L549.19 679.49" stroke="hsl(228.5, 77.2%, 51.5%)" stroke-width="1.5"></path><path d="M549.19 679.49L650.08 684.62" stroke="hsl(228.5, 77.2%, 51.5%)" stroke-width="1.5"></path><path d="M549.19 679.49L524.62 551.71" stroke="hsl(228.5, 77.2%, 51.5%)" stroke-width="1.5"></path><path d="M549.19 679.49L372.04 673.92" stroke="hsl(228.5, 77.2%, 51.5%)" stroke-width="1.5"></path><path d="M549.19 679.49L662.82 528.63" stroke="hsl(228.5, 77.2%, 51.5%)" stroke-width="1.5"></path><path d="M662.82 528.63L662.82 528.63" stroke="hsl(228.5, 77.2%, 51.5%)" stroke-width="1.5"></path><path d="M662.82 528.63L524.62 551.71" stroke="hsl(228.5, 77.2%, 51.5%)" stroke-width="1.5"></path><path d="M662.82 528.63L665.57 386.34" stroke="hsl(228.5, 77.2%, 51.5%)" stroke-width="1.5"></path><path d="M662.82 528.63L650.08 684.62" stroke="hsl(228.5, 77.2%, 51.5%)" stroke-width="1.5"></path><path d="M662.82 528.63L835.35 495.07" stroke="hsl(228.5, 77.2%, 51.5%)" stroke-width="1.5"></path><path d="M650.08 684.62L650.08 684.62" stroke="hsl(228.5, 77.2%, 51.5%)" stroke-width="1.5"></path><path d="M650.08 684.62L524.62 551.71" stroke="hsl(228.5, 77.2%, 51.5%)" stroke-width="1.5"></path><path d="M650.08 684.62L862.48 710.24" stroke="hsl(228.5, 77.2%, 51.5%)" stroke-width="1.5"></path><path d="M650.08 684.62L835.35 495.07" stroke="hsl(228.5, 77.2%, 51.5%)" stroke-width="1.5"></path><path d="M835.35 495.07L835.35 495.07" stroke="hsl(228.5, 77.2%, 51.5%)" stroke-width="1.5"></path><path d="M835.35 495.07L788.12 396.12" stroke="hsl(228.5, 77.2%, 51.5%)" stroke-width="1.5"></path><path d="M835.35 495.07L1002.69 529.7" stroke="hsl(228.5, 77.2%, 51.5%)" stroke-width="1.5"></path><path d="M835.35 495.07L945.31 657.68" stroke="hsl(228.5, 77.2%, 51.5%)" stroke-width="1.5"></path><path d="M835.35 495.07L665.57 386.34" stroke="hsl(228.5, 77.2%, 51.5%)" stroke-width="1.5"></path><path d="M835.35 495.07L972.88 344.51" stroke="hsl(228.5, 77.2%, 51.5%)" stroke-width="1.5"></path><path d="M862.48 710.24L862.48 710.24" stroke="hsl(228.5, 77.2%, 51.5%)" stroke-width="1.5"></path><path d="M862.48 710.24L945.31 657.68" stroke="hsl(228.5, 77.2%, 51.5%)" stroke-width="1.5"></path><path d="M862.48 710.24L835.35 495.07" stroke="hsl(228.5, 77.2%, 51.5%)" stroke-width="1.5"></path><path d="M1002.69 529.7L1002.69 529.7" stroke="hsl(228.5, 77.2%, 51.5%)" stroke-width="1.5"></path><path d="M1002.69 529.7L1132.39 504.01" stroke="hsl(228.5, 77.2%, 51.5%)" stroke-width="1.5"></path><path d="M1002.69 529.7L945.31 657.68" stroke="hsl(228.5, 77.2%, 51.5%)" stroke-width="1.5"></path><path d="M1002.69 529.7L972.88 344.51" stroke="hsl(228.5, 77.2%, 51.5%)" stroke-width="1.5"></path><path d="M1286.03 554.21L1286.03 554.21" stroke="hsl(228.5, 77.2%, 51.5%)" stroke-width="1.5"></path><path d="M1286.03 554.21L1272.06 652.57" stroke="hsl(228.5, 77.2%, 51.5%)" stroke-width="1.5"></path><path d="M1286.03 554.21L1444.39 525.92" stroke="hsl(228.5, 77.2%, 51.5%)" stroke-width="1.5"></path><path d="M1286.03 554.21L1132.39 504.01" stroke="hsl(228.5, 77.2%, 51.5%)" stroke-width="1.5"></path><path d="M1286.03 554.21L1430.24 658.32" stroke="hsl(228.5, 77.2%, 51.5%)" stroke-width="1.5"></path><path d="M1411.84 -98.76L1411.84 -98.76" stroke="hsl(228.5, 77.2%, 51.5%)" stroke-width="1.5"></path><path d="M1411.84 -98.76L1286.63 -111.26" stroke="hsl(228.5, 77.2%, 51.5%)" stroke-width="1.5"></path><path d="M1411.84 -98.76L1563.24 -57.96" stroke="hsl(228.5, 77.2%, 51.5%)" stroke-width="1.5"></path><path d="M1411.84 -98.76L1418 98.87" stroke="hsl(228.5, 77.2%, 51.5%)" stroke-width="1.5"></path><path d="M1444.39 525.92L1444.39 525.92" stroke="hsl(228.5, 77.2%, 51.5%)" stroke-width="1.5"></path><path d="M1444.39 525.92L1430.24 658.32" stroke="hsl(228.5, 77.2%, 51.5%)" stroke-width="1.5"></path><path d="M1444.39 525.92L1584.26 537.76" stroke="hsl(228.5, 77.2%, 51.5%)" stroke-width="1.5"></path><path d="M1444.39 525.92L1560.97 650.18" stroke="hsl(228.5, 77.2%, 51.5%)" stroke-width="1.5"></path><path d="M1561 203.26L1561 203.26" stroke="hsl(228.5, 77.2%, 51.5%)" stroke-width="1.5"></path><path d="M1561 203.26L1428.46 205.92" stroke="hsl(228.5, 77.2%, 51.5%)" stroke-width="1.5"></path><path d="M1561 203.26L1548.07 65.25" stroke="hsl(228.5, 77.2%, 51.5%)" stroke-width="1.5"></path><path d="M-101.03 489.08L-101.03 489.08" stroke="hsl(228.5, 77.2%, 51.5%)" stroke-width="1.5"></path><path d="M-101.03 489.08L-49.4 654.3" stroke="hsl(228.5, 77.2%, 51.5%)" stroke-width="1.5"></path><path d="M-101.03 489.08L77.79 510.46" stroke="hsl(228.5, 77.2%, 51.5%)" stroke-width="1.5"></path><path d="M-101.03 489.08L77.71 701.5" stroke="hsl(228.5, 77.2%, 51.5%)" stroke-width="1.5"></path><path d="M-49.4 654.3L-49.4 654.3" stroke="hsl(228.5, 77.2%, 51.5%)" stroke-width="1.5"></path><path d="M-49.4 654.3L77.71 701.5" stroke="hsl(228.5, 77.2%, 51.5%)" stroke-width="1.5"></path><path d="M-49.4 654.3L77.79 510.46" stroke="hsl(228.5, 77.2%, 51.5%)" stroke-width="1.5"></path><path d="M-49.4 654.3L192.02 549.97" stroke="hsl(228.5, 77.2%, 51.5%)" stroke-width="1.5"></path><path d="M-49.4 654.3L355.28 537.06" stroke="hsl(228.5, 77.2%, 51.5%)" stroke-width="1.5"></path><path d="M-49.4 654.3L372.04 673.92" stroke="hsl(228.5, 77.2%, 51.5%)" stroke-width="1.5"></path><path d="M77.79 510.46L77.79 510.46" stroke="hsl(228.5, 77.2%, 51.5%)" stroke-width="1.5"></path><path d="M77.79 510.46L77.71 701.5" stroke="hsl(228.5, 77.2%, 51.5%)" stroke-width="1.5"></path><path d="M77.79 510.46L355.28 537.06" stroke="hsl(228.5, 77.2%, 51.5%)" stroke-width="1.5"></path><path d="M77.79 510.46L372.04 673.92" stroke="hsl(228.5, 77.2%, 51.5%)" stroke-width="1.5"></path><path d="M77.71 701.5L77.71 701.5" stroke="hsl(228.5, 77.2%, 51.5%)" stroke-width="1.5"></path><path d="M355.28 537.06L355.28 537.06" stroke="hsl(228.5, 77.2%, 51.5%)" stroke-width="1.5"></path><path d="M355.28 537.06L372.04 673.92" stroke="hsl(228.5, 77.2%, 51.5%)" stroke-width="1.5"></path><path d="M355.28 537.06L524.62 551.71" stroke="hsl(228.5, 77.2%, 51.5%)" stroke-width="1.5"></path><path d="M355.28 537.06L549.19 679.49" stroke="hsl(228.5, 77.2%, 51.5%)" stroke-width="1.5"></path><path d="M355.28 537.06L662.82 528.63" stroke="hsl(228.5, 77.2%, 51.5%)" stroke-width="1.5"></path><path d="M372.04 673.92L372.04 673.92" stroke="hsl(228.5, 77.2%, 51.5%)" stroke-width="1.5"></path><path d="M372.04 673.92L524.62 551.71" stroke="hsl(228.5, 77.2%, 51.5%)" stroke-width="1.5"></path><path d="M524.62 551.71L524.62 551.71" stroke="hsl(228.5, 77.2%, 51.5%)" stroke-width="1.5"></path><path d="M665.57 386.34L665.57 386.34" stroke="hsl(228.5, 77.2%, 51.5%)" stroke-width="1.5"></path><path d="M665.57 386.34L788.12 396.12" stroke="hsl(228.5, 77.2%, 51.5%)" stroke-width="1.5"></path><path d="M665.57 386.34L524.62 551.71" stroke="hsl(228.5, 77.2%, 51.5%)" stroke-width="1.5"></path><path d="M788.12 396.12L788.12 396.12" stroke="hsl(228.5, 77.2%, 51.5%)" stroke-width="1.5"></path><path d="M788.12 396.12L662.82 528.63" stroke="hsl(228.5, 77.2%, 51.5%)" stroke-width="1.5"></path><path d="M788.12 396.12L972.88 344.51" stroke="hsl(228.5, 77.2%, 51.5%)" stroke-width="1.5"></path><path d="M788.12 396.12L1002.69 529.7" stroke="hsl(228.5, 77.2%, 51.5%)" stroke-width="1.5"></path><path d="M972.88 344.51L972.88 344.51" stroke="hsl(228.5, 77.2%, 51.5%)" stroke-width="1.5"></path><path d="M972.88 344.51L1103.23 208.93" stroke="hsl(228.5, 77.2%, 51.5%)" stroke-width="1.5"></path><path d="M945.31 657.68L945.31 657.68" stroke="hsl(228.5, 77.2%, 51.5%)" stroke-width="1.5"></path><path d="M945.31 657.68L1130.22 696.02" stroke="hsl(228.5, 77.2%, 51.5%)" stroke-width="1.5"></path><path d="M1103.23 208.93L1103.23 208.93" stroke="hsl(228.5, 77.2%, 51.5%)" stroke-width="1.5"></path><path d="M1103.23 208.93L1239.8 366.57" stroke="hsl(228.5, 77.2%, 51.5%)" stroke-width="1.5"></path><path d="M1103.23 208.93L1310.77 239.28" stroke="hsl(228.5, 77.2%, 51.5%)" stroke-width="1.5"></path><path d="M1103.23 208.93L1302.63 68.33" stroke="hsl(228.5, 77.2%, 51.5%)" stroke-width="1.5"></path><path d="M1132.39 504.01L1132.39 504.01" stroke="hsl(228.5, 77.2%, 51.5%)" stroke-width="1.5"></path><path d="M1132.39 504.01L1239.8 366.57" stroke="hsl(228.5, 77.2%, 51.5%)" stroke-width="1.5"></path><path d="M1132.39 504.01L1130.22 696.02" stroke="hsl(228.5, 77.2%, 51.5%)" stroke-width="1.5"></path><path d="M1130.22 696.02L1130.22 696.02" stroke="hsl(228.5, 77.2%, 51.5%)" stroke-width="1.5"></path><path d="M1130.22 696.02L1272.06 652.57" stroke="hsl(228.5, 77.2%, 51.5%)" stroke-width="1.5"></path><path d="M1130.22 696.02L1002.69 529.7" stroke="hsl(228.5, 77.2%, 51.5%)" stroke-width="1.5"></path><path d="M1130.22 696.02L1286.03 554.21" stroke="hsl(228.5, 77.2%, 51.5%)" stroke-width="1.5"></path><path d="M1130.22 696.02L862.48 710.24" stroke="hsl(228.5, 77.2%, 51.5%)" stroke-width="1.5"></path><path d="M1286.63 -111.26L1286.63 -111.26" stroke="hsl(228.5, 77.2%, 51.5%)" stroke-width="1.5"></path><path d="M1286.63 -111.26L1302.63 68.33" stroke="hsl(228.5, 77.2%, 51.5%)" stroke-width="1.5"></path><path d="M1286.63 -111.26L1418 98.87" stroke="hsl(228.5, 77.2%, 51.5%)" stroke-width="1.5"></path><path d="M1286.63 -111.26L1563.24 -57.96" stroke="hsl(228.5, 77.2%, 51.5%)" stroke-width="1.5"></path><path d="M1302.63 68.33L1302.63 68.33" stroke="hsl(228.5, 77.2%, 51.5%)" stroke-width="1.5"></path><path d="M1302.63 68.33L1418 98.87" stroke="hsl(228.5, 77.2%, 51.5%)" stroke-width="1.5"></path><path d="M1302.63 68.33L1310.77 239.28" stroke="hsl(228.5, 77.2%, 51.5%)" stroke-width="1.5"></path><path d="M1302.63 68.33L1428.46 205.92" stroke="hsl(228.5, 77.2%, 51.5%)" stroke-width="1.5"></path><path d="M1302.63 68.33L1411.84 -98.76" stroke="hsl(228.5, 77.2%, 51.5%)" stroke-width="1.5"></path><path d="M1310.77 239.28L1310.77 239.28" stroke="hsl(228.5, 77.2%, 51.5%)" stroke-width="1.5"></path><path d="M1310.77 239.28L1428.46 205.92" stroke="hsl(228.5, 77.2%, 51.5%)" stroke-width="1.5"></path><path d="M1310.77 239.28L1239.8 366.57" stroke="hsl(228.5, 77.2%, 51.5%)" stroke-width="1.5"></path><path d="M1310.77 239.28L1418 98.87" stroke="hsl(228.5, 77.2%, 51.5%)" stroke-width="1.5"></path><path d="M1239.8 366.57L1239.8 366.57" stroke="hsl(228.5, 77.2%, 51.5%)" stroke-width="1.5"></path><path d="M1239.8 366.57L1286.03 554.21" stroke="hsl(228.5, 77.2%, 51.5%)" stroke-width="1.5"></path><path d="M1239.8 366.57L1459.17 344.76" stroke="hsl(228.5, 77.2%, 51.5%)" stroke-width="1.5"></path><path d="M1239.8 366.57L1428.46 205.92" stroke="hsl(228.5, 77.2%, 51.5%)" stroke-width="1.5"></path><path d="M1272.06 652.57L1272.06 652.57" stroke="hsl(228.5, 77.2%, 51.5%)" stroke-width="1.5"></path><path d="M1272.06 652.57L1430.24 658.32" stroke="hsl(228.5, 77.2%, 51.5%)" stroke-width="1.5"></path><path d="M1418 98.87L1418 98.87" stroke="hsl(228.5, 77.2%, 51.5%)" stroke-width="1.5"></path><path d="M1418 98.87L1428.46 205.92" stroke="hsl(228.5, 77.2%, 51.5%)" stroke-width="1.5"></path><path d="M1428.46 205.92L1428.46 205.92" stroke="hsl(228.5, 77.2%, 51.5%)" stroke-width="1.5"></path><path d="M1459.17 344.76L1459.17 344.76" stroke="hsl(228.5, 77.2%, 51.5%)" stroke-width="1.5"></path><path d="M1459.17 344.76L1568.59 372.15" stroke="hsl(228.5, 77.2%, 51.5%)" stroke-width="1.5"></path><path d="M1459.17 344.76L1428.46 205.92" stroke="hsl(228.5, 77.2%, 51.5%)" stroke-width="1.5"></path><path d="M1459.17 344.76L1561 203.26" stroke="hsl(228.5, 77.2%, 51.5%)" stroke-width="1.5"></path><path d="M1430.24 658.32L1430.24 658.32" stroke="hsl(228.5, 77.2%, 51.5%)" stroke-width="1.5"></path><path d="M1430.24 658.32L1560.97 650.18" stroke="hsl(228.5, 77.2%, 51.5%)" stroke-width="1.5"></path><path d="M1430.24 658.32L1584.26 537.76" stroke="hsl(228.5, 77.2%, 51.5%)" stroke-width="1.5"></path><path d="M1563.24 -57.96L1563.24 -57.96" stroke="hsl(228.5, 77.2%, 51.5%)" stroke-width="1.5"></path><path d="M1563.24 -57.96L1548.07 65.25" stroke="hsl(228.5, 77.2%, 51.5%)" stroke-width="1.5"></path><path d="M1548.07 65.25L1548.07 65.25" stroke="hsl(228.5, 77.2%, 51.5%)" stroke-width="1.5"></path><path d="M1548.07 65.25L1418 98.87" stroke="hsl(228.5, 77.2%, 51.5%)" stroke-width="1.5"></path><path d="M1568.59 372.15L1568.59 372.15" stroke="hsl(228.5, 77.2%, 51.5%)" stroke-width="1.5"></path><path d="M1568.59 372.15L1584.26 537.76" stroke="hsl(228.5, 77.2%, 51.5%)" stroke-width="1.5"></path><path d="M1568.59 372.15L1561 203.26" stroke="hsl(228.5, 77.2%, 51.5%)" stroke-width="1.5"></path><path d="M1568.59 372.15L1444.39 525.92" stroke="hsl(228.5, 77.2%, 51.5%)" stroke-width="1.5"></path><path d="M1568.59 372.15L1428.46 205.92" stroke="hsl(228.5, 77.2%, 51.5%)" stroke-width="1.5"></path><path d="M1568.59 372.15L1560.97 650.18" stroke="hsl(228.5, 77.2%, 51.5%)" stroke-width="1.5"></path><path d="M1584.26 537.76L1584.26 537.76" stroke="hsl(228.5, 77.2%, 51.5%)" stroke-width="1.5"></path><path d="M1584.26 537.76L1560.97 650.18" stroke="hsl(228.5, 77.2%, 51.5%)" stroke-width="1.5"></path><path d="M1560.97 650.18L1560.97 650.18" stroke="hsl(228.5, 77.2%, 51.5%)" stroke-width="1.5"></path><circle r="25" cx="192.02" cy="549.97" fill="url(&quot;#SvgjsRadialGradient1001&quot;)"></circle><circle r="25" cx="549.19" cy="679.49" fill="url(&quot;#SvgjsRadialGradient1001&quot;)"></circle><circle r="25" cx="662.82" cy="528.63" fill="url(&quot;#SvgjsRadialGradient1001&quot;)"></circle><circle r="25" cx="650.08" cy="684.62" fill="url(&quot;#SvgjsRadialGradient1001&quot;)"></circle><circle r="25" cx="835.35" cy="495.07" fill="url(&quot;#SvgjsRadialGradient1001&quot;)"></circle><circle r="25" cx="862.48" cy="710.24" fill="url(&quot;#SvgjsRadialGradient1001&quot;)"></circle><circle r="25" cx="1002.69" cy="529.7" fill="url(&quot;#SvgjsRadialGradient1001&quot;)"></circle><circle r="25" cx="1286.03" cy="554.21" fill="url(&quot;#SvgjsRadialGradient1001&quot;)"></circle><circle r="25" cx="1411.84" cy="-98.76" fill="url(&quot;#SvgjsRadialGradient1001&quot;)"></circle><circle r="25" cx="1444.39" cy="525.92" fill="url(&quot;#SvgjsRadialGradient1001&quot;)"></circle><circle r="25" cx="1561" cy="203.26" fill="url(&quot;#SvgjsRadialGradient1001&quot;)"></circle><circle r="5" cx="-101.03" cy="489.08" fill="#8b9ad9"></circle><circle r="5" cx="-49.4" cy="654.3" fill="#8b9ad9"></circle><circle r="5" cx="77.79" cy="510.46" fill="#8b9ad9"></circle><circle r="5" cx="77.71" cy="701.5" fill="#8b9ad9"></circle><circle r="5" cx="355.28" cy="537.06" fill="#8b9ad9"></circle><circle r="5" cx="372.04" cy="673.92" fill="#8b9ad9"></circle><circle r="5" cx="524.62" cy="551.71" fill="#8b9ad9"></circle><circle r="5" cx="665.57" cy="386.34" fill="#8b9ad9"></circle><circle r="5" cx="788.12" cy="396.12" fill="#8b9ad9"></circle><circle r="5" cx="972.88" cy="344.51" fill="#8b9ad9"></circle><circle r="5" cx="945.31" cy="657.68" fill="#8b9ad9"></circle><circle r="5" cx="1103.23" cy="208.93" fill="#8b9ad9"></circle><circle r="5" cx="1132.39" cy="504.01" fill="#8b9ad9"></circle><circle r="5" cx="1130.22" cy="696.02" fill="#8b9ad9"></circle><circle r="5" cx="1286.63" cy="-111.26" fill="#8b9ad9"></circle><circle r="5" cx="1302.63" cy="68.33" fill="#8b9ad9"></circle><circle r="5" cx="1310.77" cy="239.28" fill="#8b9ad9"></circle><circle r="5" cx="1239.8" cy="366.57" fill="#8b9ad9"></circle><circle r="5" cx="1272.06" cy="652.57" fill="#8b9ad9"></circle><circle r="5" cx="1418" cy="98.87" fill="#8b9ad9"></circle><circle r="5" cx="1428.46" cy="205.92" fill="#8b9ad9"></circle><circle r="5" cx="1459.17" cy="344.76" fill="#8b9ad9"></circle><circle r="5" cx="1430.24" cy="658.32" fill="#8b9ad9"></circle><circle r="5" cx="1563.24" cy="-57.96" fill="#8b9ad9"></circle><circle r="5" cx="1548.07" cy="65.25" fill="#8b9ad9"></circle><circle r="5" cx="1568.59" cy="372.15" fill="#8b9ad9"></circle><circle r="5" cx="1584.26" cy="537.76" fill="#8b9ad9"></circle><circle r="5" cx="1560.97" cy="650.18" fill="#8b9ad9"></circle></g><defs><mask id="SvgjsMask1000"><rect width="1440" height="560" fill="#ffffff"></rect></mask><radialGradient id="SvgjsRadialGradient1001"><stop stop-color="#ffffff" offset="0.1"></stop><stop stop-color="#1735b3" offset="0.2"></stop><stop stop-color="rgba(23, 53, 179, 0)" offset="1"></stop></radialGradient></defs></svg>